<svg width="103" height="42" viewBox="0 0 103 42" fill="none" xmlns="http://www.w3.org/2000/svg">
<path d="M1 32.553V26.2829L16.5504 1.51485H21.8976V10.1938H18.7329L8.9298 25.8784V26.1726H31.0277V32.553H1ZM18.8784 39.1726V30.6407L19.0239 27.8642V1.51485H26.4081V39.1726H18.8784Z" fill="black"/>
<path d="M50.8795 40C47.7512 39.9877 45.0595 39.2093 42.8042 37.6648C40.5611 36.1202 38.8332 33.8831 37.6207 30.9533C36.4204 28.0236 35.8262 24.4993 35.8384 20.3805C35.8384 16.2739 36.4385 12.7742 37.6389 9.88119C38.8514 6.98821 40.5793 4.78784 42.8224 3.28006C45.0777 1.76002 47.7634 1 50.8795 1C53.9957 1 56.6753 1.76002 58.9184 3.28006C61.1737 4.80009 62.9076 7.0066 64.1201 9.89958C65.3326 12.7803 65.9328 16.2739 65.9207 20.3805C65.9207 24.5116 65.3144 28.042 64.1019 30.9717C62.9015 33.9015 61.1798 36.1386 58.9366 37.6832C56.6935 39.2277 54.0078 40 50.8795 40ZM50.8795 33.3989C53.0135 33.3989 54.7171 32.314 55.9902 30.1443C57.2634 27.9745 57.8939 24.7199 57.8817 20.3805C57.8817 17.5243 57.5907 15.1462 57.0087 13.2461C56.4389 11.3461 55.6265 9.91796 54.5716 8.96181C53.5288 8.00566 52.2981 7.52758 50.8795 7.52758C48.7576 7.52758 47.0601 8.60019 45.787 10.7454C44.5138 12.8906 43.8712 16.1023 43.8591 20.3805C43.8591 23.2735 44.144 25.6884 44.7139 27.6252C45.2959 29.5497 46.1144 30.9962 47.1692 31.9646C48.2241 32.9208 49.4609 33.3989 50.8795 33.3989Z" fill="black"/>
<path d="M70.9723 32.553V26.2829L86.5227 1.51485H91.8698V10.1938H88.7052L78.9021 25.8784V26.1726H101V32.553H70.9723ZM88.8507 39.1726V30.6407L88.9962 27.8642V1.51485H96.3803V39.1726H88.8507Z" fill="black"/>
<path d="M2 33.553V27.2829L17.5504 2.51485H22.8976V11.1938H19.7329L9.9298 26.8784V27.1726H32.0277V33.553H2ZM19.8784 40.1726V31.6407L20.0239 28.8642V2.51485H27.4081V40.1726H19.8784Z" fill="#E51EFF"/>
<path d="M51.8795 41C48.7512 40.9877 46.0595 40.2093 43.8042 38.6648C41.5611 37.1202 39.8332 34.8831 38.6207 31.9533C37.4204 29.0236 36.8262 25.4993 36.8384 21.3805C36.8384 17.2739 37.4385 13.7742 38.6389 10.8812C39.8514 7.98821 41.5793 5.78784 43.8224 4.28006C46.0777 2.76002 48.7634 2 51.8795 2C54.9957 2 57.6753 2.76002 59.9184 4.28006C62.1737 5.80009 63.9076 8.0066 65.1201 10.8996C66.3326 13.7803 66.9328 17.2739 66.9207 21.3805C66.9207 25.5116 66.3144 29.042 65.1019 31.9717C63.9015 34.9015 62.1798 37.1386 59.9366 38.6832C57.6935 40.2277 55.0078 41 51.8795 41ZM51.8795 34.3989C54.0135 34.3989 55.7171 33.314 56.9902 31.1443C58.2634 28.9745 58.8939 25.7199 58.8817 21.3805C58.8817 18.5243 58.5907 16.1462 58.0087 14.2461C57.4389 12.3461 56.6265 10.918 55.5716 9.96181C54.5288 9.00566 53.2981 8.52758 51.8795 8.52758C49.7576 8.52758 48.0601 9.60019 46.787 11.7454C45.5138 13.8906 44.8712 17.1023 44.8591 21.3805C44.8591 24.2735 45.144 26.6884 45.7139 28.6252C46.2959 30.5497 47.1144 31.9962 48.1692 32.9646C49.2241 33.9208 50.4609 34.3989 51.8795 34.3989Z" fill="#E51EFF"/>
<path d="M71.9723 33.553V27.2829L87.5227 2.51485H92.8698V11.1938H89.7052L79.9021 26.8784V27.1726H102V33.553H71.9723ZM89.8507 40.1726V31.6407L89.9962 28.8642V2.51485H97.3803V40.1726H89.8507Z" fill="#E51EFF"/>
</svg>
