<svg width="140" height="36" viewBox="0 0 140 36" fill="none" xmlns="http://www.w3.org/2000/svg">
<path id="Exclude" fill-rule="evenodd" clip-rule="evenodd" d="M140 0H0V36H140V0ZM3.4652 4.13636V32.5H9.462V20.7834H21.6357V32.5H27.6186V4.13636H21.6357V15.8391H9.462V4.13636H3.4652ZM31.0256 32.5H37.4517L39.5558 26.0323H49.7967L51.8967 32.5H58.3228L48.5451 4.13636H40.8171L31.0256 32.5ZM48.2768 21.3512L44.7919 10.6179H44.5703L41.0786 21.3512H48.2768ZM61.7367 4.13636V32.5H67.7335V23.304H72.7747C74.9537 23.304 76.8095 22.9023 78.3422 22.0991C79.8841 21.2958 81.0613 20.174 81.8738 18.7337C82.6863 17.2933 83.0925 15.6314 83.0925 13.7479C83.0925 11.8643 82.6909 10.2024 81.8876 8.76207C81.0936 7.3125 79.9395 6.18146 78.4252 5.36896C76.911 4.54723 75.0783 4.13636 72.927 4.13636H61.7367ZM67.7335 18.4982H71.8052C72.9593 18.4982 73.9103 18.2997 74.6582 17.9027C75.4153 17.4964 75.9785 16.9379 76.3478 16.2269C76.7264 15.5067 76.9157 14.6804 76.9157 13.7479C76.9157 12.8061 76.7264 11.9844 76.3478 11.2827C75.9785 10.5717 75.4153 10.0224 74.6582 9.63459C73.9011 9.23757 72.9409 9.03906 71.7775 9.03906H67.7335V18.4982ZM86.9877 4.13636V32.5H92.9845V23.304H98.0257C100.205 23.304 102.06 22.9023 103.593 22.0991C105.135 21.2958 106.312 20.174 107.125 18.7337C107.937 17.2933 108.343 15.6314 108.343 13.7479C108.343 11.8643 107.942 10.2024 107.139 8.76207C106.345 7.3125 105.19 6.18146 103.676 5.36896C102.162 4.54723 100.329 4.13636 98.178 4.13636H86.9877ZM92.9845 18.4982H97.0562C98.2103 18.4982 99.1613 18.2997 99.9092 17.9027C100.666 17.4964 101.229 16.9379 101.599 16.2269C101.977 15.5067 102.167 14.6804 102.167 13.7479C102.167 12.8061 101.977 11.9844 101.599 11.2827C101.229 10.5717 100.666 10.0224 99.9092 9.63459C99.1521 9.23757 98.1918 9.03906 97.0285 9.03906H92.9845V18.4982ZM117.294 4.13636H110.577L120.922 22.473V32.5H126.877V22.473L137.223 4.13636H130.506L124.038 16.3516H123.761L117.294 4.13636Z" fill="#E51EFF"/>
</svg>
